<svg xmlns="http://www.w3.org/2000/svg" xmlns:xlink="http://www.w3.org/1999/xlink" width="500" zoomAndPan="magnify" viewBox="0 0 375 374.999991" height="500" preserveAspectRatio="xMidYMid meet" version="1.0"><defs><clipPath id="862f84283f"><path d="M 73.40625 3.476562 L 236 3.476562 L 236 166 L 73.40625 166 Z M 73.40625 3.476562 " clip-rule="nonzero"/></clipPath><clipPath id="453f6c4fe4"><path d="M 73.40625 143 L 301.40625 143 L 301.40625 371.726562 L 73.40625 371.726562 Z M 73.40625 143 " clip-rule="nonzero"/></clipPath></defs><g clip-path="url(#862f84283f)"><path fill="#ffffff" d="M 187.5 113.867188 C 204.230469 114.324219 220.355469 116.757812 235.339844 122.082031 L 235.339844 120.636719 C 235.339844 55.90625 182.859375 3.5 118.207031 3.5 L 73.40625 3.5 L 73.40625 165.4375 C 73.40625 165.4375 119.269531 111.964844 187.5 113.867188 Z M 187.5 113.867188 " fill-opacity="1" fill-rule="nonzero"/></g><g clip-path="url(#453f6c4fe4)"><path fill="#ffffff" d="M 187.5 143.300781 C 124.519531 143.300781 73.40625 194.339844 73.40625 257.394531 L 73.40625 371.488281 L 187.5 371.488281 C 250.476562 371.488281 301.59375 320.453125 301.59375 257.394531 C 301.515625 194.417969 250.476562 143.300781 187.5 143.300781 Z M 187.5 143.300781 " fill-opacity="1" fill-rule="nonzero"/></g></svg>