<svg xmlns="http://www.w3.org/2000/svg" xmlns:xlink="http://www.w3.org/1999/xlink" width="500" zoomAndPan="magnify" viewBox="0 0 375 374.999991" height="500" preserveAspectRatio="xMidYMid meet" version="1.0"><defs><clipPath id="cb38a5ecd0"><path d="M 73.40625 3.476562 L 236 3.476562 L 236 166 L 73.40625 166 Z M 73.40625 3.476562 " clip-rule="nonzero"/></clipPath><clipPath id="f2399ace2d"><path d="M 73.40625 143 L 301.40625 143 L 301.40625 371.726562 L 73.40625 371.726562 Z M 73.40625 143 " clip-rule="nonzero"/></clipPath></defs><g clip-path="url(#cb38a5ecd0)"><path fill="#000000" d="M 187.40625 113.929688 C 204.125 114.386719 220.238281 116.820312 235.207031 122.148438 L 235.207031 120.703125 C 235.207031 55.9375 182.769531 3.5 118.167969 3.5 L 73.40625 3.5 L 73.40625 165.527344 C 73.40625 165.527344 119.230469 112.027344 187.40625 113.929688 Z M 187.40625 113.929688 " fill-opacity="1" fill-rule="nonzero"/></g><g clip-path="url(#f2399ace2d)"><path fill="#000000" d="M 187.40625 143.382812 C 124.476562 143.382812 73.40625 194.449219 73.40625 257.542969 L 73.40625 371.699219 L 187.40625 371.699219 C 250.332031 371.699219 301.40625 320.632812 301.40625 257.542969 C 301.328125 194.527344 250.332031 143.382812 187.40625 143.382812 Z M 187.40625 143.382812 " fill-opacity="1" fill-rule="nonzero"/></g></svg>