<svg xmlns="http://www.w3.org/2000/svg" xmlns:xlink="http://www.w3.org/1999/xlink" width="500" zoomAndPan="magnify" viewBox="0 0 375 374.999991" height="500" preserveAspectRatio="xMidYMid meet" version="1.0"><defs><clipPath id="ea8099b828"><path d="M 123.53125 84.324219 L 215 84.324219 L 215 176 L 123.53125 176 Z M 123.53125 84.324219 " clip-rule="nonzero"/></clipPath><clipPath id="c907b6376a"><path d="M 123.53125 162 L 251.78125 162 L 251.78125 290.574219 L 123.53125 290.574219 Z M 123.53125 162 " clip-rule="nonzero"/></clipPath></defs><g clip-path="url(#ea8099b828)"><path fill="#ffffff" d="M 187.496094 146.214844 C 196.878906 146.472656 205.921875 147.835938 214.320312 150.820312 L 214.320312 150.011719 C 214.320312 113.722656 184.898438 84.339844 148.648438 84.339844 L 123.53125 84.339844 L 123.53125 175.128906 C 123.53125 175.128906 149.246094 145.148438 187.496094 146.214844 Z M 187.496094 146.214844 " fill-opacity="1" fill-rule="nonzero"/></g><g clip-path="url(#c907b6376a)"><path fill="#ffffff" d="M 187.496094 162.71875 C 152.1875 162.71875 123.53125 191.335938 123.53125 226.6875 L 123.53125 290.652344 L 187.496094 290.652344 C 222.808594 290.652344 251.464844 262.039062 251.464844 226.6875 C 251.421875 191.375 222.808594 162.71875 187.496094 162.71875 Z M 187.496094 162.71875 " fill-opacity="1" fill-rule="nonzero"/></g></svg>